<svg width="114" height="21" viewBox="0 0 114 21" fill="none" xmlns="http://www.w3.org/2000/svg">
<g clip-path="url(#clip0_2_280)">
<path fill-rule="evenodd" clip-rule="evenodd" d="M15.6264 17.1852C14.6315 18.2098 13.655 19.2573 12.5912 20.211C11.332 21.3385 9.32621 21.2424 8.11075 20.0326C5.72809 17.6609 3.35233 15.28 0.990345 12.8877C-0.358373 11.5223 -0.314718 9.41594 1.0386 8.06199C3.39828 5.70401 5.74647 3.33459 8.10386 0.976604C9.37216 -0.29044 11.4354 -0.333895 12.7267 0.90113C13.7124 1.8457 14.6567 2.83143 15.6195 3.79886C15.3897 4.13964 15.0749 4.40265 14.79 4.68854C13.7078 5.78405 12.6141 6.86813 11.5182 7.94992C11.123 8.34101 10.7875 8.7687 10.5968 9.29244C10.1947 10.3948 10.3004 11.4606 10.9828 12.4143C11.486 13.1187 12.1615 13.6814 12.7635 14.3034C13.7032 15.2777 14.6705 16.2246 15.6264 17.1829V17.1852Z" fill="white"/>
<path fill-rule="evenodd" clip-rule="evenodd" d="M15.6586 3.80118C16.272 3.29573 16.7982 2.70109 17.3588 2.14304C17.8161 1.68562 18.2641 1.21906 18.7489 0.791374C19.4933 0.132694 20.4009 -0.0731433 21.3567 0.0800913C22.0506 0.189871 22.6825 0.487192 23.2017 1.01551C24.925 2.76741 26.6735 4.49188 28.4036 6.23463C29.1412 6.97793 29.9384 7.67092 30.5841 8.49656C31.4939 9.6584 31.5169 11.2616 30.6185 12.4532C30.0257 13.2423 29.2721 13.8918 28.5782 14.5893C27.11 16.0645 25.6395 17.5374 24.1599 19.0011C23.6544 19.4997 23.204 20.0623 22.5998 20.4557C21.9587 20.8743 21.2441 21.0229 20.4836 20.9452C19.8219 20.8788 19.2383 20.6067 18.7167 20.2179C18.4502 20.0189 18.2434 19.7444 18.0068 19.5043C17.2531 18.7381 16.4995 17.9719 15.7459 17.2081C15.7275 17.1898 15.6953 17.1875 15.6701 17.1783C15.6976 17.144 15.7252 17.1051 15.7551 17.0731C17.1589 15.6574 18.5674 14.244 19.9713 12.8283C21.2258 11.5635 21.2212 9.40911 19.9621 8.14892C18.8362 7.02139 17.7081 5.89843 16.5845 4.7709C16.2697 4.45528 15.9688 4.12594 15.6609 3.80118H15.6586Z" fill="white"/>
<path fill-rule="evenodd" clip-rule="evenodd" d="M15.6586 3.80113C15.9664 4.12361 16.2674 4.45523 16.5822 4.77085C17.7058 5.90067 18.8362 7.02363 19.9598 8.14887C21.2189 9.40906 21.2235 11.5635 19.9689 12.8282C18.5651 14.2439 17.1589 15.6597 15.7528 17.0731C15.7206 17.1051 15.6953 17.1417 15.6677 17.1783C15.654 17.1829 15.6379 17.1851 15.6241 17.1829C14.6683 16.2246 13.701 15.2777 12.7612 14.3034C12.1592 13.6813 11.4837 13.1164 10.9806 12.4143C10.2981 11.4606 10.1925 10.3971 10.5945 9.29241C10.7853 8.76867 11.1207 8.34099 11.5159 7.9499C12.6119 6.86811 13.7056 5.78403 14.7877 4.68852C15.0727 4.40034 15.3874 4.13733 15.6172 3.79884C15.631 3.79427 15.6425 3.79427 15.6563 3.79884L15.6586 3.80113Z" fill="white" fill-opacity="0.6"/>
<path fill-rule="evenodd" clip-rule="evenodd" d="M58.2453 13.9581C58.2453 15.3943 58.2408 16.7574 58.2499 18.1205C58.2499 18.3264 58.2109 18.3996 57.9857 18.3927C57.4067 18.3744 56.8277 18.3813 56.2487 18.3904C56.0947 18.3904 56.0258 18.3744 56.0258 18.1892C56.0327 14.1479 56.0304 10.1043 56.0258 6.06304C56.0258 5.90981 56.0419 5.83205 56.2303 5.83662C56.7909 5.85035 57.3516 5.84577 57.9122 5.83662C58.0684 5.83662 58.1213 5.88465 58.1167 6.04017C58.1075 6.38324 58.1144 6.7263 58.1144 7.14255C58.4292 6.75374 58.7279 6.44956 59.0863 6.21399C59.9134 5.66967 60.8279 5.49127 61.8067 5.57361C64.3042 5.77945 65.6644 7.7715 65.9149 9.84817C66.0849 11.2799 65.8023 12.5972 64.8993 13.7316C63.8631 15.033 62.4799 15.5659 60.8233 15.3898C59.7871 15.28 58.9254 14.8432 58.2453 13.9603V13.9581ZM60.952 13.3405C62.5167 13.3405 63.7597 12.1032 63.7459 10.5068C63.7321 8.95849 62.6591 7.64571 60.9359 7.63427C59.362 7.62512 58.1305 8.90818 58.1374 10.5251C58.1442 12.1009 59.385 13.3405 60.9543 13.3383L60.952 13.3405Z" fill="white"/>
<path fill-rule="evenodd" clip-rule="evenodd" d="M110.239 11.2387C109.09 11.2387 107.941 11.2456 106.795 11.2318C106.549 11.2296 106.521 11.3142 106.563 11.5177C106.792 12.6064 107.771 13.4366 108.92 13.5052C109.933 13.5647 110.781 13.2719 111.342 12.3754C111.401 12.2816 111.466 12.2587 111.565 12.261C112.208 12.2633 112.851 12.2656 113.495 12.261C113.669 12.261 113.704 12.3022 113.623 12.4646C112.879 13.9992 111.725 15.0536 110.011 15.3555C107.766 15.7488 105.565 14.6053 104.655 12.38C103.697 10.038 104.633 7.3621 106.859 6.14309C109.591 4.64505 113.154 6.06761 113.892 9.3633C114.014 9.90534 114 10.4497 114 10.9986C114 11.193 113.931 11.2456 113.74 11.2456C112.573 11.2387 111.406 11.241 110.241 11.241L110.239 11.2387ZM111.762 9.5051C111.751 9.2924 111.684 9.10715 111.599 8.92647C111.05 7.76463 109.692 7.18828 108.373 7.56108C107.488 7.81037 106.898 8.36842 106.615 9.24208C106.556 9.42505 106.576 9.52797 106.829 9.52568C108.398 9.51196 109.968 9.51882 111.539 9.51882C111.61 9.51882 111.684 9.51196 111.762 9.50739V9.5051Z" fill="white"/>
<path fill-rule="evenodd" clip-rule="evenodd" d="M73.0123 11.2364C71.8635 11.2364 70.7146 11.2433 69.5658 11.2295C69.3429 11.2295 69.297 11.2959 69.3384 11.4949C69.575 12.6201 70.5745 13.4526 71.7348 13.5052C72.7389 13.5487 73.5752 13.2582 74.1266 12.3662C74.1749 12.2862 74.23 12.2565 74.3242 12.2565C74.9768 12.261 75.6293 12.261 76.2818 12.2565C76.4266 12.2565 76.4886 12.2747 76.4082 12.4394C75.6293 14.0564 74.4184 15.1153 72.5918 15.3715C70.0139 15.7328 67.6082 14.0129 67.1441 11.3462C66.6915 8.74806 68.3481 6.07218 71.1443 5.61476C74.0439 5.14133 76.3462 7.14253 76.7276 9.63088C76.7942 10.07 76.7689 10.5045 76.7827 10.9437C76.7896 11.1678 76.7253 11.241 76.4886 11.2387C75.3306 11.2273 74.1726 11.2341 73.0146 11.2341L73.0123 11.2364ZM71.96 9.51424C72.6745 9.51424 73.3914 9.51424 74.106 9.51424C74.4598 9.51424 74.5655 9.34881 74.423 9.01794C74.4093 8.98363 74.3955 8.95162 74.3794 8.91731C73.8165 7.75776 72.4815 7.1837 71.1788 7.54963C70.3103 7.79206 69.706 8.32495 69.4234 9.18947C69.3177 9.51195 69.3246 9.51424 69.6485 9.51424C70.4182 9.51424 71.1903 9.51424 71.96 9.51424Z" fill="white"/>
<path fill-rule="evenodd" clip-rule="evenodd" d="M38.7613 6.85668C39.6137 5.69713 40.751 5.46842 42.0331 5.58735C43.8414 5.75659 44.6777 6.91614 44.9534 8.45764C45.0476 8.99053 45.0706 9.52799 45.0706 10.0677C45.066 11.6779 45.0637 13.288 45.0729 14.8981C45.0729 15.0993 45.0293 15.1611 44.8202 15.1542C44.2779 15.1382 43.7357 15.1336 43.1934 15.1542C42.9269 15.1657 42.8419 15.1108 42.8442 14.8226C42.8626 13.2491 42.8557 11.6756 42.8511 10.1021C42.8511 9.72011 42.8051 9.34045 42.6994 8.96766C42.4168 7.97506 41.6035 7.63658 40.735 7.65487C39.5034 7.68003 38.7912 8.5537 38.7797 9.73383C38.7636 11.4354 38.7636 13.137 38.7682 14.8386C38.7682 15.0879 38.7107 15.1657 38.4511 15.1542C37.8905 15.1313 37.3298 15.1405 36.7692 15.1519C36.5877 15.1542 36.5165 15.1222 36.5165 14.9164C36.5234 10.8911 36.5211 6.86583 36.5165 2.84056C36.5165 2.6736 36.5555 2.621 36.7279 2.62329C37.3253 2.63472 37.9226 2.63472 38.52 2.62329C38.7153 2.61871 38.7659 2.67818 38.7659 2.86801C38.759 4.07559 38.7613 5.28317 38.7613 6.49075C38.7613 6.59138 38.7613 6.68972 38.7613 6.85668Z" fill="white"/>
<path fill-rule="evenodd" clip-rule="evenodd" d="M86.596 6.88185C87.4392 5.70629 88.5835 5.45929 89.877 5.58965C90.5089 5.65369 91.0925 5.82522 91.6003 6.2186C92.2643 6.73319 92.5859 7.44905 92.7583 8.23809C92.8892 8.83731 92.9283 9.44796 92.926 10.0609C92.9237 11.6619 92.9214 13.2628 92.9306 14.8615C92.9306 15.0765 92.8938 15.1634 92.6526 15.1542C92.0828 15.1336 91.5129 15.1382 90.9431 15.1542C90.7318 15.1611 90.6812 15.0948 90.6835 14.8935C90.6904 13.3017 90.6858 11.7099 90.6881 10.1204C90.6881 9.66066 90.6582 9.20553 90.4859 8.77784C90.1137 7.85844 89.344 7.63888 88.6018 7.66175C87.198 7.7052 86.6098 8.64519 86.6006 10.054C86.5914 11.6641 86.596 13.2743 86.6006 14.8821C86.6006 15.081 86.5661 15.1657 86.3364 15.1588C85.7573 15.1382 85.1783 15.1474 84.5993 15.1542C84.4454 15.1542 84.3765 15.1405 84.3765 14.9553C84.3834 10.914 84.3811 6.87042 84.3765 2.82914C84.3765 2.67819 84.4132 2.62788 84.5741 2.63016C85.1806 2.63931 85.7872 2.6416 86.3938 2.63016C86.5753 2.62559 86.6006 2.69192 86.6006 2.85201C86.5937 4.17623 86.5983 5.50045 86.5983 6.88871L86.596 6.88185Z" fill="white"/>
<path fill-rule="evenodd" clip-rule="evenodd" d="M50.346 11.966C50.5827 11.305 50.8033 10.6944 51.0238 10.0815C51.5063 8.74351 51.9889 7.40328 52.4668 6.06305C52.5265 5.89381 52.6069 5.82748 52.7999 5.83206C53.4249 5.84807 54.0498 5.84578 54.6748 5.83206C54.9069 5.82748 54.9252 5.88008 54.8448 6.08821C53.4525 9.66063 52.067 13.2353 50.6815 16.8101C50.5023 17.2743 50.3162 17.7363 50.1415 18.2029C50.091 18.3378 50.0221 18.395 49.8658 18.3927C49.2133 18.3813 48.5608 18.3836 47.9082 18.3904C47.7313 18.3904 47.6854 18.3698 47.7658 18.1823C48.2276 17.1074 48.6756 16.0279 49.1352 14.9507C49.188 14.8272 49.1903 14.7242 49.1398 14.5962C48.0277 11.7625 46.9248 8.92648 45.8082 6.09507C45.7163 5.86407 45.7622 5.83206 45.9897 5.83663C46.5963 5.85035 47.2029 5.85264 47.8094 5.83663C48.03 5.82977 48.1265 5.89609 48.2 6.10193C48.8778 7.97963 49.5648 9.85046 50.2518 11.7259C50.2748 11.7899 50.3024 11.8539 50.3483 11.9706L50.346 11.966Z" fill="white"/>
<path fill-rule="evenodd" clip-rule="evenodd" d="M80.505 6.90469C80.9484 6.22085 81.5412 5.80232 82.3247 5.63079C83.0622 5.47069 83.0599 5.45926 83.0599 6.18655C83.0599 6.66226 83.053 7.13798 83.0645 7.61369C83.0668 7.76692 83.0255 7.81495 82.8669 7.81266C82.5085 7.80809 82.1547 7.85841 81.8192 7.98877C80.9875 8.31582 80.6566 8.99509 80.6428 9.82072C80.6152 11.4926 80.629 13.1667 80.6382 14.8409C80.6382 15.0833 80.5877 15.1679 80.328 15.1588C79.7605 15.1359 79.1884 15.1428 78.6209 15.1588C78.4325 15.1634 78.3911 15.1016 78.3911 14.9255C78.3957 11.982 78.3957 9.03854 78.3911 6.09278C78.3911 5.9121 78.4256 5.83205 78.6324 5.83662C79.1838 5.85035 79.7352 5.84806 80.2844 5.83662C80.4728 5.83205 80.521 5.90066 80.5118 6.07448C80.4981 6.35122 80.5073 6.62796 80.5073 6.90698L80.505 6.90469Z" fill="white"/>
<path fill-rule="evenodd" clip-rule="evenodd" d="M101.528 6.89097C101.972 6.21857 102.562 5.79775 103.346 5.63079C104.07 5.47527 104.067 5.46383 104.067 6.20027C104.067 6.65769 104.058 7.11511 104.072 7.57252C104.079 7.76006 104.033 7.81267 103.835 7.81724C103.327 7.8241 102.833 7.90872 102.411 8.21748C101.843 8.63144 101.655 9.23523 101.648 9.89163C101.629 11.5475 101.634 13.201 101.643 14.8569C101.643 15.0902 101.6 15.1702 101.347 15.1588C100.77 15.1359 100.189 15.1451 99.6121 15.1542C99.4375 15.1565 99.3939 15.0993 99.3939 14.9369C99.3985 11.9752 99.3985 9.0111 99.3939 6.04933C99.3939 5.87322 99.4559 5.83663 99.619 5.83891C100.18 5.84806 100.74 5.84806 101.301 5.83891C101.48 5.83663 101.544 5.88694 101.533 6.0722C101.517 6.34436 101.528 6.6211 101.528 6.89326V6.89097Z" fill="white"/>
<path fill-rule="evenodd" clip-rule="evenodd" d="M97.2823 10.5069C97.2823 11.9706 97.2777 13.4343 97.2869 14.8958C97.2869 15.1016 97.2341 15.1588 97.0273 15.1542C96.4483 15.1405 95.8693 15.1428 95.2903 15.1542C95.1064 15.1565 95.0352 15.1199 95.0352 14.9164C95.0421 11.9706 95.0421 9.02712 95.0352 6.08136C95.0352 5.89153 95.0881 5.82978 95.2834 5.83435C95.8532 5.84579 96.423 5.85036 96.9928 5.83435C97.218 5.82749 97.2892 5.88238 97.2869 6.11795C97.2754 7.58169 97.2823 9.04542 97.2823 10.5069Z" fill="white"/>
<path fill-rule="evenodd" clip-rule="evenodd" d="M95.0582 4.06187C95.0674 3.84917 95.1248 3.68907 95.2512 3.55871C95.5131 3.29112 95.782 3.03039 96.037 2.75594C96.1404 2.64616 96.2001 2.66217 96.2966 2.7628C96.5425 3.02124 96.8044 3.26139 97.0503 3.51983C97.3627 3.84688 97.3673 4.24026 97.0618 4.5696C96.8136 4.83719 96.5425 5.08419 96.2897 5.34721C96.1978 5.44098 96.1381 5.44327 96.0462 5.34721C95.782 5.07047 95.5085 4.8006 95.2397 4.52843C95.1019 4.38892 95.0651 4.2151 95.0559 4.06187H95.0582Z" fill="#DFF0FF"/>
</g>
<defs>
<clipPath id="clip0_2_280">
<rect width="114" height="21" fill="white"/>
</clipPath>
</defs>
</svg>
