<svg width="187" height="34" viewBox="0 0 187 34" fill="none" xmlns="http://www.w3.org/2000/svg">
<g clip-path="url(#clip0_1_1353)">
<path fill-rule="evenodd" clip-rule="evenodd" d="M25.6327 27.8236C24.0007 29.4825 22.3989 31.1784 20.6539 32.7225C18.5885 34.548 15.2982 34.3925 13.3044 32.4337C9.39604 28.5938 5.49895 24.7391 1.62448 20.8658C-0.587894 18.6552 -0.516284 15.2448 1.70362 13.0527C5.57433 9.23503 9.42619 5.39882 13.2931 1.58114C15.3736 -0.470267 18.7581 -0.540622 20.8762 1.45894C22.4931 2.98824 24.0422 4.58419 25.6214 6.15051C25.2445 6.70224 24.7281 7.12808 24.2608 7.59094C22.4856 9.36463 20.6916 11.1198 18.8938 12.8713C18.2455 13.5045 17.6953 14.1969 17.3824 15.0449C16.7229 16.8297 16.8962 18.5552 18.0156 20.0993C18.841 21.2398 19.9491 22.1507 20.9366 23.1579C22.4781 24.7354 24.0648 26.2684 25.6327 27.8199V27.8236Z" fill="#2C599B"/>
<path fill-rule="evenodd" clip-rule="evenodd" d="M25.6855 6.15422C26.6918 5.33588 27.5549 4.37313 28.4745 3.46962C29.2245 2.72904 29.9595 1.97365 30.7547 1.28121C31.9759 0.214773 33.4646 -0.118488 35.0325 0.129606C36.1707 0.307345 37.2072 0.788722 38.0589 1.64409C40.8856 4.48051 43.7538 7.27249 46.5918 10.0941C47.8017 11.2975 49.1095 12.4195 50.1686 13.7563C51.6611 15.6373 51.6987 18.2331 50.2251 20.1623C49.2527 21.4398 48.0165 22.4914 46.8783 23.6208C44.4699 26.0092 42.0578 28.3938 39.6306 30.7637C38.8014 31.5709 38.0627 32.4818 37.0715 33.1187C36.0199 33.7963 34.8478 34.037 33.6003 33.9111C32.5148 33.8038 31.5575 33.3631 30.702 32.7336C30.2648 32.4115 29.9255 31.9671 29.5373 31.5783C28.3011 30.3378 27.0649 29.0974 25.8287 27.8606C25.7986 27.831 25.7458 27.8273 25.7043 27.8125C25.7496 27.7569 25.7948 27.694 25.8438 27.6421C28.1466 25.35 30.457 23.0616 32.7598 20.7696C34.8176 18.7219 34.8101 15.2337 32.7447 13.1934C30.8979 11.3679 29.0474 9.54978 27.2044 7.72425C26.688 7.21325 26.1943 6.68003 25.6893 6.15422H25.6855Z" fill="#58C4E9"/>
<path fill-rule="evenodd" clip-rule="evenodd" d="M25.6855 6.15422C26.1905 6.67632 26.6843 7.21324 27.2006 7.72424C29.0436 9.55347 30.8979 11.3716 32.741 13.1934C34.8063 15.2337 34.8139 18.7218 32.756 20.7695C30.4532 23.0616 28.1466 25.3537 25.84 27.6421C25.7873 27.694 25.7458 27.7532 25.7006 27.8125C25.678 27.8199 25.6516 27.8236 25.629 27.8199C24.0611 26.2684 22.4744 24.7354 20.9329 23.1579C19.9454 22.1507 18.8373 21.2361 18.0119 20.0993C16.8925 18.5552 16.7192 16.8334 17.3787 15.0449C17.6916 14.1969 18.2418 13.5045 18.8901 12.8713C20.6879 11.1198 22.4819 9.36463 24.2571 7.59094C24.7244 7.12437 25.2408 6.69854 25.6177 6.15051C25.6403 6.14311 25.6591 6.14311 25.6817 6.15051L25.6855 6.15422Z" fill="#5266A8"/>
<path fill-rule="evenodd" clip-rule="evenodd" d="M95.5428 22.5988C95.5428 24.9242 95.5352 27.1311 95.5503 29.3381C95.5503 29.6713 95.4862 29.7898 95.1169 29.7787C94.1671 29.7491 93.2173 29.7602 92.2676 29.775C92.015 29.775 91.902 29.7491 91.902 29.4491C91.9133 22.9061 91.9095 16.3594 91.902 9.81638C91.902 9.56828 91.9284 9.44239 92.2374 9.44979C93.157 9.47201 94.0767 9.4646 94.9963 9.44979C95.2526 9.44979 95.3393 9.52755 95.3317 9.77935C95.3166 10.3348 95.3279 10.8902 95.3279 11.5641C95.8443 10.9347 96.3343 10.4422 96.9222 10.0608C98.279 9.17948 99.7791 8.89065 101.385 9.02396C105.481 9.35722 107.713 12.5824 108.124 15.9447C108.402 18.2627 107.939 20.3956 106.458 22.2322C104.758 24.3391 102.489 25.2019 99.7715 24.9168C98.0717 24.7391 96.6584 24.0318 95.5428 22.6025V22.5988ZM99.9826 21.599C102.549 21.599 104.588 19.5957 104.566 17.0111C104.543 14.5042 102.783 12.3788 99.9562 12.3603C97.3745 12.3455 95.3543 14.4228 95.3656 17.0407C95.3769 19.592 97.4122 21.599 99.9864 21.5953L99.9826 21.599Z" fill="#302D2E"/>
<path fill-rule="evenodd" clip-rule="evenodd" d="M180.83 18.196C178.946 18.196 177.061 18.2071 175.181 18.1849C174.777 18.1812 174.732 18.3182 174.8 18.6478C175.177 20.4104 176.782 21.7545 178.667 21.8656C180.329 21.9619 181.72 21.4879 182.639 20.0364C182.737 19.8846 182.843 19.8475 183.005 19.8512C184.06 19.8549 185.116 19.8586 186.171 19.8512C186.457 19.8512 186.514 19.9179 186.382 20.1808C185.161 22.6654 183.269 24.3725 180.457 24.8612C176.775 25.4981 173.164 23.6467 171.672 20.0438C170.1 16.252 171.634 11.9196 175.286 9.94598C179.767 7.52058 185.613 9.82379 186.823 15.1597C187.023 16.0372 187 16.9185 187 17.8072C187 18.122 186.887 18.2071 186.574 18.2071C184.659 18.196 182.745 18.1997 180.834 18.1997L180.83 18.196ZM183.329 15.3892C183.31 15.0449 183.201 14.7449 183.061 14.4524C182.161 12.5713 179.933 11.6382 177.77 12.2418C176.319 12.6454 175.35 13.5489 174.887 14.9634C174.789 15.2596 174.823 15.4263 175.237 15.4226C177.811 15.4003 180.385 15.4115 182.963 15.4115C183.08 15.4115 183.201 15.4003 183.329 15.3929V15.3892Z" fill="#2F2C2D"/>
<path fill-rule="evenodd" clip-rule="evenodd" d="M119.766 18.1923C117.881 18.1923 115.997 18.2034 114.112 18.1812C113.747 18.1812 113.671 18.2886 113.739 18.6108C114.127 20.4326 115.767 21.7804 117.67 21.8656C119.317 21.936 120.689 21.4657 121.594 20.0216C121.673 19.892 121.763 19.8438 121.918 19.8438C122.988 19.8512 124.059 19.8512 125.129 19.8438C125.366 19.8438 125.468 19.8734 125.336 20.1401C124.059 22.758 122.072 24.4724 119.076 24.8872C114.847 25.4722 110.901 22.6876 110.14 18.3701C109.397 14.1636 112.115 9.83119 116.702 9.09061C121.458 8.32411 125.235 11.5641 125.86 15.5929C125.969 16.3039 125.928 17.0074 125.951 17.7184C125.962 18.0812 125.856 18.1997 125.468 18.196C123.569 18.1775 121.669 18.1886 119.77 18.1886L119.766 18.1923ZM118.04 15.4041C119.212 15.4041 120.388 15.4041 121.56 15.4041C122.14 15.4041 122.314 15.1362 122.08 14.6005C122.057 14.545 122.035 14.4931 122.008 14.4376C121.085 12.5602 118.895 11.6308 116.758 12.2233C115.334 12.6158 114.342 13.4785 113.879 14.8782C113.705 15.4003 113.717 15.4041 114.248 15.4041C115.511 15.4041 116.777 15.4041 118.04 15.4041Z" fill="#2F2C2D"/>
<path fill-rule="evenodd" clip-rule="evenodd" d="M63.5821 11.1013C64.9804 9.22392 66.846 8.85363 68.9491 9.04618C71.9152 9.32019 73.2871 11.1976 73.7394 13.6933C73.8939 14.5561 73.9316 15.4263 73.9316 16.3002C73.9241 18.907 73.9203 21.5138 73.9354 24.1207C73.9354 24.4465 73.8638 24.5465 73.5208 24.5354C72.6313 24.5095 71.7419 24.5021 70.8524 24.5354C70.4152 24.5539 70.2758 24.465 70.2795 23.9985C70.3097 21.4509 70.2984 18.9033 70.2908 16.3557C70.2908 15.7373 70.2154 15.1226 70.0421 14.5191C69.5785 12.912 68.2443 12.364 66.8196 12.3936C64.7995 12.4343 63.6311 13.8488 63.6123 15.7595C63.5859 18.5145 63.5859 21.2694 63.5934 24.0244C63.5934 24.428 63.4992 24.5539 63.0733 24.5354C62.1537 24.4984 61.2341 24.5132 60.3144 24.5317C60.0167 24.5354 59.8998 24.4836 59.8998 24.1503C59.9111 17.6332 59.9074 11.1161 59.8998 4.599C59.8998 4.32869 59.9639 4.24352 60.2466 4.24723C61.2265 4.26574 62.2064 4.26574 63.1864 4.24723C63.5067 4.23982 63.5896 4.3361 63.5896 4.64344C63.5783 6.59857 63.5821 8.55369 63.5821 10.5088C63.5821 10.6718 63.5821 10.831 63.5821 11.1013Z" fill="#2F2D2E"/>
<path fill-rule="evenodd" clip-rule="evenodd" d="M142.048 11.1419C143.431 9.23857 145.308 8.83865 147.43 9.04972C148.467 9.1534 149.424 9.43112 150.257 10.068C151.346 10.9012 151.874 12.0602 152.156 13.3377C152.371 14.3078 152.435 15.2965 152.431 16.2889C152.428 18.8809 152.424 21.4729 152.439 24.0613C152.439 24.4093 152.379 24.55 151.983 24.5352C151.048 24.5019 150.114 24.5093 149.179 24.5352C148.832 24.5463 148.749 24.439 148.753 24.1131C148.764 21.5359 148.757 18.9587 148.761 16.3852C148.761 15.6409 148.712 14.904 148.429 14.2116C147.818 12.723 146.556 12.3675 145.338 12.4045C143.035 12.4749 142.071 13.9968 142.056 16.2778C142.04 18.8846 142.048 21.4915 142.056 24.0946C142.056 24.4167 141.999 24.5537 141.622 24.5426C140.672 24.5093 139.723 24.5241 138.773 24.5352C138.52 24.5352 138.407 24.513 138.407 24.2131C138.419 17.6701 138.415 11.1233 138.407 4.58032C138.407 4.33593 138.468 4.25447 138.731 4.25817C139.726 4.27298 140.721 4.27668 141.716 4.25817C142.014 4.25076 142.056 4.35815 142.056 4.61735C142.044 6.76133 142.052 8.90531 142.052 11.153L142.048 11.1419Z" fill="#302D2E"/>
<path fill-rule="evenodd" clip-rule="evenodd" d="M82.5851 19.3736C82.9733 18.3034 83.3352 17.3147 83.697 16.3224C84.4884 14.1562 85.2799 11.9863 86.0639 9.81638C86.1619 9.54237 86.2938 9.43498 86.6104 9.44239C87.6355 9.46831 88.6607 9.46461 89.6858 9.44239C90.0665 9.43498 90.0966 9.52015 89.9647 9.85712C87.6807 15.641 85.4081 21.4287 83.1354 27.2163C82.8414 27.968 82.5361 28.716 82.2497 29.4714C82.1668 29.6898 82.0537 29.7824 81.7974 29.7787C80.727 29.7602 79.6567 29.7639 78.5863 29.775C78.2961 29.775 78.2207 29.7417 78.3526 29.438C79.1102 27.6977 79.8451 25.9499 80.5989 24.2058C80.6856 24.0059 80.6893 23.8393 80.6064 23.6319C78.7823 19.044 76.9732 14.4524 75.1415 9.86822C74.9907 9.49423 75.0661 9.44239 75.4392 9.4498C76.4342 9.47201 77.4292 9.47572 78.4242 9.4498C78.786 9.43869 78.9443 9.54607 79.0649 9.87933C80.1768 12.9194 81.3037 15.9484 82.4306 18.9848C82.4683 19.0884 82.5135 19.1921 82.5889 19.381L82.5851 19.3736Z" fill="#2F2D2E"/>
<path fill-rule="evenodd" clip-rule="evenodd" d="M132.056 11.179C132.784 10.0719 133.756 9.39425 135.041 9.11653C136.251 8.85733 136.247 8.83882 136.247 10.0163C136.247 10.7865 136.236 11.5567 136.255 12.3269C136.259 12.575 136.191 12.6528 135.931 12.6491C135.343 12.6417 134.762 12.7232 134.212 12.9342C132.848 13.4637 132.305 14.5635 132.282 15.9002C132.237 18.6071 132.26 21.3176 132.275 24.0281C132.275 24.4206 132.192 24.5576 131.766 24.5428C130.835 24.5058 129.897 24.5169 128.966 24.5428C128.657 24.5502 128.589 24.4502 128.589 24.1651C128.596 19.3995 128.596 14.6339 128.589 9.86452C128.589 9.57199 128.645 9.44239 128.985 9.44979C129.889 9.47201 130.794 9.46831 131.694 9.44979C132.004 9.44239 132.083 9.55348 132.068 9.8349C132.045 10.2829 132.06 10.731 132.06 11.1828L132.056 11.179Z" fill="#2F2C2D"/>
<path fill-rule="evenodd" clip-rule="evenodd" d="M166.542 11.1568C167.27 10.0682 168.238 9.38685 169.523 9.11654C170.711 8.86474 170.707 8.84622 170.707 10.0386C170.707 10.7791 170.692 11.5197 170.714 12.2603C170.726 12.5639 170.65 12.6491 170.326 12.6565C169.493 12.6676 168.683 12.8046 167.989 13.3045C167.058 13.9747 166.749 14.9523 166.738 16.015C166.708 18.6959 166.715 21.3731 166.731 24.054C166.731 24.4317 166.659 24.5613 166.244 24.5428C165.298 24.5058 164.345 24.5206 163.399 24.5354C163.112 24.5391 163.041 24.4465 163.041 24.1836C163.048 19.3884 163.048 14.5894 163.041 9.79417C163.041 9.50904 163.143 9.4498 163.41 9.4535C164.33 9.46831 165.249 9.46831 166.169 9.4535C166.463 9.4498 166.569 9.53126 166.55 9.83119C166.523 10.2718 166.542 10.7199 166.542 11.1605V11.1568Z" fill="#2F2C2D"/>
<path fill-rule="evenodd" clip-rule="evenodd" d="M159.577 17.0111C159.577 19.381 159.57 21.7508 159.585 24.117C159.585 24.4502 159.498 24.5428 159.159 24.5354C158.209 24.5132 157.259 24.5169 156.309 24.5354C156.008 24.5391 155.891 24.4799 155.891 24.1503C155.902 19.381 155.902 14.6153 155.891 9.84601C155.891 9.53867 155.978 9.43869 156.298 9.44609C157.233 9.46461 158.168 9.47201 159.102 9.44609C159.472 9.43498 159.588 9.52385 159.585 9.90525C159.566 12.2751 159.577 14.645 159.577 17.0111Z" fill="#2F2D2D"/>
<path fill-rule="evenodd" clip-rule="evenodd" d="M155.929 6.57634C155.944 6.23197 156.038 5.97277 156.245 5.76171C156.675 5.32847 157.116 4.90634 157.534 4.46199C157.704 4.28425 157.802 4.31017 157.96 4.4731C158.364 4.89152 158.793 5.28033 159.197 5.69876C159.709 6.22827 159.717 6.86517 159.215 7.39839C158.808 7.83162 158.364 8.23154 157.949 8.65737C157.798 8.80919 157.7 8.81289 157.549 8.65737C157.116 8.20932 156.668 7.77238 156.227 7.33173C156 7.10586 155.94 6.82444 155.925 6.57634H155.929Z" fill="#5867A5"/>
</g>
<defs>
<clipPath id="clip0_1_1353">
<rect width="187" height="34" fill="white"/>
</clipPath>
</defs>
</svg>
